<?xml version="1.0" encoding="UTF-8" standalone="no"?>
<svg
   xmlns:dc="http://purl.org/dc/elements/1.1/"
   xmlns:cc="http://creativecommons.org/ns#"
   xmlns:rdf="http://www.w3.org/1999/02/22-rdf-syntax-ns#"
   xmlns:svg="http://www.w3.org/2000/svg"
   xmlns="http://www.w3.org/2000/svg"
   xmlns:xlink="http://www.w3.org/1999/xlink"
   xmlns:sodipodi="http://sodipodi.sourceforge.net/DTD/sodipodi-0.dtd"
   xmlns:inkscape="http://www.inkscape.org/namespaces/inkscape"
   width="754"
   height="342"
   viewBox="0 0 754 342"
   version="1.1"
   id="svg43"
   sodipodi:docname="text2.svg"
   inkscape:version="0.92.4 (unknown)">
  <metadata
     id="metadata47">
    <rdf:RDF>
      <cc:Work
         rdf:about="">
        <dc:format>image/svg+xml</dc:format>
        <dc:type
           rdf:resource="http://purl.org/dc/dcmitype/StillImage" />
        <dc:title></dc:title>
      </cc:Work>
    </rdf:RDF>
  </metadata>
  <sodipodi:namedview
     pagecolor="#ffffff"
     bordercolor="#666666"
     borderopacity="1"
     objecttolerance="10"
     gridtolerance="10"
     guidetolerance="10"
     inkscape:pageopacity="0"
     inkscape:pageshadow="2"
     inkscape:window-width="1366"
     inkscape:window-height="715"
     id="namedview45"
     showgrid="false"
     inkscape:zoom="0.43989071"
     inkscape:cx="-76.15528"
     inkscape:cy="171"
     inkscape:window-x="0"
     inkscape:window-y="27"
     inkscape:window-maximized="1"
     inkscape:current-layer="g41" />
  <defs
     id="defs25">
    <filter
       id="a"
       width="1.4289999"
       height="1.114"
       x="-0.214"
       y="-0.056999996"
       filterUnits="objectBoundingBox">
      <feOffset
         dy="2"
         in="SourceAlpha"
         result="shadowOffsetOuter1"
         id="feOffset2" />
      <feGaussianBlur
         in="shadowOffsetOuter1"
         result="shadowBlurOuter1"
         stdDeviation="2"
         id="feGaussianBlur4" />
      <feColorMatrix
         in="shadowBlurOuter1"
         result="shadowMatrixOuter1"
         values="0 0 0 0 0 0 0 0 0 0 0 0 0 0 0 0 0 0 0.5 0"
         id="feColorMatrix6" />
      <feMerge
         id="feMerge12">
        <feMergeNode
           in="shadowMatrixOuter1"
           id="feMergeNode8" />
        <feMergeNode
           in="SourceGraphic"
           id="feMergeNode10" />
      </feMerge>
    </filter>
    <text
       id="c"
       font-size="400"
       letter-spacing="9.998"
       style="font-size:400px;font-family:Montserrat-Regular, Montserrat;letter-spacing:9.99800014;fill:#f47321">
      <tspan
         x="37.602001"
         y="85.582001"
         id="tspan15">404</tspan>
    </text>
    <filter
       id="b"
       width="1.015"
       height="2.076"
       x="-0.0080000004"
       y="-1.033"
       filterUnits="objectBoundingBox">
      <feOffset
         dy="2"
         in="SourceAlpha"
         result="shadowOffsetOuter1"
         id="feOffset18" />
      <feGaussianBlur
         in="shadowOffsetOuter1"
         result="shadowBlurOuter1"
         stdDeviation="2"
         id="feGaussianBlur20" />
      <feColorMatrix
         in="shadowBlurOuter1"
         values="0 0 0 0 0 0 0 0 0 0 0 0 0 0 0 0 0 0 0.5 0"
         id="feColorMatrix22" />
    </filter>
  </defs>
  <g
     id="g41"
     style="fill:none;fill-rule:evenodd">
    <g
       transform="translate(347,27)"
       id="g29"
       style="fill:#f47321;fill-rule:nonzero;filter:url(#a)">
      <path
         d="m 14.396,115.25 h 27.208 c 0.381,0 0.704,0.323 0.704,0.704 v 12.848 C 50.752,133.847 56,143.028 56,152.855 c 0,15.458 -12.549,28.012 -28,28.012 -15.451,0 -28,-12.554 -28,-28.012 0,-9.827 5.248,-19.008 13.692,-24.053 v -12.848 c 0,-0.38 0.323,-0.704 0.704,-0.704 z m 26.505,1.408 H 15.099 v 12.555 a 0.715,0.715 0 0 1 -0.351,0.616 c -8.24,4.722 -13.34,13.551 -13.34,23.026 0,14.666 11.932,26.604 26.592,26.604 14.66,0 26.593,-11.938 26.593,-26.604 0,-9.475 -5.102,-18.304 -13.34,-23.056 a 0.715,0.715 0 0 1 -0.352,-0.616 z M 15.92,108.944 h 24.16 c 0.38,0 0.703,0.323 0.703,0.704 a 0.714,0.714 0 0 1 -0.703,0.704 H 15.92 a 0.714,0.714 0 0 1 -0.703,-0.704 c 0,-0.381 0.322,-0.704 0.703,-0.704 z m 5.16,-7.04 h 13.87 c 0.38,0 0.703,0.323 0.703,0.704 a 0.714,0.714 0 0 1 -0.703,0.704 H 21.08 a 0.714,0.714 0 0 1 -0.704,-0.704 c 0,-0.381 0.293,-0.704 0.704,-0.704 z M 28,187.79 c 0.381,0 0.704,0.322 0.704,0.704 v 19.829 A 0.714,0.714 0 0 1 28,209.027 0.714,0.714 0 0 1 27.296,208.323 v -19.83 c 0,-0.38 0.323,-0.703 0.704,-0.703 z m -12.373,-1.848 a 0.59,0.59 0 0 1 0.323,0.088 c 0.352,0.176 0.469,0.616 0.293,0.968 L 9.939,198.76 c -0.176,0.352 -0.615,0.47 -0.967,0.293 -0.352,-0.175 -0.47,-0.615 -0.293,-0.967 l 6.333,-11.792 c 0.117,-0.235 0.351,-0.352 0.615,-0.352 z m 24.746,0 c 0.264,0 0.498,0.147 0.615,0.381 l 6.304,11.763 a 0.725,0.725 0 0 1 -0.293,0.967 0.725,0.725 0 0 1 -0.968,-0.293 l -6.303,-11.762 a 0.725,0.725 0 0 1 0.293,-0.968 c 0.147,-0.059 0.234,-0.088 0.352,-0.088 z M 28.346,0 c 0.374,0 0.691,0.323 0.691,0.705 V 95.57 A 0.708,0.708 0 0 1 28.346,96.275 0.708,0.708 0 0 1 27.654,95.57 V 0.705 C 27.654,0.323 27.971,0 28.346,0 Z"
         id="path27"
         inkscape:connector-curvature="0" />
    </g>
    <g
       transform="translate(-49,236)"
       id="g35"
       style="fill:#f47321">
      <use
         xlink:href="#c"
         id="use31"
         style="filter:url(#b)"
         x="0"
         y="0"
         width="100%"
         height="100%" />
      <use
         xlink:href="#c"
         id="use33"
         x="0"
         y="0"
         width="100%"
         height="100%" />
    </g>
    <text
       font-size="30.018"
       font-weight="bold"
       letter-spacing=".75"
       transform="translate(-91,212)"
       id="text39"
       style="font-weight:bold;font-size:30.01799965px;font-family:Montserrat-Bold, Montserrat;letter-spacing:0.75;fill:#333333">
      <tspan
         x="287.80099"
         y="122"
         id="tspan37" />
    </text>
  </g>
</svg>
